<svg width="200" height="194" viewBox="0 0 200 194" fill="none" xmlns="http://www.w3.org/2000/svg">
<mask id="path-1-outside-1" maskUnits="userSpaceOnUse" x="0" y="7.29424" width="195" height="181" fill="black">
<rect fill="white" y="7.29424" width="195" height="181"/>
<path d="M157.107 34L151.803 39.3033L146.5 34L151.803 28.6967L157.107 34Z"/>
<path d="M154.213 58.6066L143.607 48V69.2132L154.213 58.6066Z"/>
<path d="M132 46.6066L142.607 57.2132V36L132 46.6066Z"/>
<path d="M142.607 58.5901L132 69.1967H142.607V58.5901Z"/>
<path d="M126 63.3033L131.303 68.6066L136.607 63.3033H126Z"/>
<path d="M142.5 34.4702L135 34.5L135.03 41.9999L142.5 34.4702Z"/>
<path d="M145.607 33.6066L135 33.5885L140.312 28.2942L150.919 28.3123L145.607 33.6066Z"/>
<path d="M119.5 65H112V57.5H119.5V65Z"/>
<path d="M109 44.6066L119.607 55.2132V34L109 44.6066Z"/>
<path d="M98.2132 44.6066L87.6066 34V55.2132L98.2132 44.6066Z"/>
<path d="M111 41H96L103.5 48.5L111 41Z"/>
<path d="M88 65.5H95.5V58L88 65.5Z"/>
<path d="M112.102 49.1015V56.6015H119.602L112.102 49.1015Z"/>
<path d="M95.5 56.5L88 64V56.5L95.5 49V56.5Z"/>
<path d="M55.5 68H48V60.5H55.5V68Z"/>
<path d="M59.6066 31L49 41.6066H70.2132L59.6066 31Z"/>
<path d="M48 43V58L63 43H48Z"/>
<path d="M72 60V44L64 52L72 60Z"/>
<path d="M71.5 43H64V50.5L71.5 43Z"/>
<path d="M66.3033 66.6066L71.6066 61.3033L66.3033 56V66.6066Z"/>
<path d="M55.5 52L48 59.5H55.5L63 52H55.5Z"/>
<path d="M167.5 160H160V152.5H167.5V160Z"/>
<path d="M157 139.607L167.607 150.213V129L157 139.607Z"/>
<path d="M146.213 139.607L135.607 129V150.213L146.213 139.607Z"/>
<path d="M159 136H144L151.5 143.5L159 136Z"/>
<path d="M136 160.5H143.5V153L136 160.5Z"/>
<path d="M160.102 144.101V151.601H167.602L160.102 144.101Z"/>
<path d="M143.5 151.5L136 159V151.5L143.5 144V151.5Z"/>
<path d="M81.4999 153H73.9999V145.5H81.4999V153Z"/>
<path d="M62 133V148L77 133H62Z"/>
<path d="M61.9999 149.607L72.6065 160.213V139L61.9999 149.607Z"/>
<path d="M72.9706 162.314L61.6569 151V162.314H72.9706Z"/>
<path d="M82.3033 148.607L87.6066 143.303L82.3033 138V148.607Z"/>
<path d="M86.5 140.5V133H79L86.5 140.5Z"/>
<path d="M85.5 161.5L78 154H85.5L93 161.5H85.5Z"/>
<path d="M106.5 163H99V155.5H106.5V163Z"/>
<path d="M110.607 126L100 136.607H121.213L110.607 126Z"/>
<path d="M99 138V153L114 138H99Z"/>
<path d="M123 155V139L115 147L123 155Z"/>
<path d="M122.5 138H115V145.5L122.5 138Z"/>
<path d="M117.303 161.607L122.607 156.303L117.303 151V161.607Z"/>
<path d="M106.5 147L99 154.5H106.5L114 147H106.5Z"/>
<path d="M77.6066 85.5H70.1066V78H77.6066V85.5Z"/>
<path d="M62.6066 110L52 120.607H73.2132L62.6066 110Z"/>
<path d="M69.1066 78H54.1066L69.1066 93V78Z"/>
<path d="M61.1066 95V110L68.6066 102.5L61.1066 95Z"/>
<path d="M68.4099 104L63.1066 109.303L68.4099 114.607V104Z"/>
<path d="M53.1066 78.5V86H60.6066L53.1066 78.5Z"/>
<path d="M61.3162 93.9226L68.7603 101.478L68.816 93.9782L61.3718 86.4228L61.3162 93.9226Z"/>
<path d="M91.6066 115H84.1066V107.5H91.6066V115Z"/>
<path d="M95.7132 78L85.1066 88.6066H106.32L95.7132 78Z"/>
<path d="M84.1066 90V105L99.1066 90H84.1066Z"/>
<path d="M108.107 107V91L100.107 99L108.107 107Z"/>
<path d="M107.607 90H100.107V97.5L107.607 90Z"/>
<path d="M102.41 113.607L107.713 108.303L102.41 103V113.607Z"/>
<path d="M91.6066 99L84.1066 106.5H91.6066L99.1066 99H91.6066Z"/>
<path d="M142.41 92.6066L137.107 87.3033L142.41 82L147.713 87.3033L142.41 92.6066Z"/>
<path d="M120.107 95H135.107L120.107 80V95Z"/>
<path d="M135.607 96H120.607L135.607 111V96Z"/>
<path d="M125.42 104L114.107 115.314H125.42V104Z"/>
<path d="M120.103 107.607L125.407 102.303L120.103 97V107.607Z"/>
<path d="M136.803 99.6066L142.107 94.3033L136.803 89V99.6066Z"/>
<path d="M142.213 106.607V96L136.91 101.303V111.91L142.213 106.607Z"/>
<path d="M55.5 156.5H48V149H55.5V156.5Z"/>
<path d="M27 140.607L37.6066 151.213V130L27 140.607Z"/>
<path d="M27 157H42L27 142V157Z"/>
<path d="M52 158H36L44 166L52 158Z"/>
<path d="M38.5 130V137.5H46L38.5 130Z"/>
<path d="M46.5 136.5V129H39L46.5 136.5Z"/>
<path d="M34.5 165.5L27 158H34.5L42 165.5H34.5Z"/>
</mask>
<path d="M157.107 34L151.803 39.3033L146.5 34L151.803 28.6967L157.107 34Z" fill="#54A0FF"/>
<path d="M154.213 58.6066L143.607 48V69.2132L154.213 58.6066Z" fill="#54A0FF"/>
<path d="M132 46.6066L142.607 57.2132V36L132 46.6066Z" fill="#54A0FF"/>
<path d="M142.607 58.5901L132 69.1967H142.607V58.5901Z" fill="#54A0FF"/>
<path d="M126 63.3033L131.303 68.6066L136.607 63.3033H126Z" fill="#54A0FF"/>
<path d="M142.5 34.4702L135 34.5L135.03 41.9999L142.5 34.4702Z" fill="#54A0FF"/>
<path d="M145.607 33.6066L135 33.5885L140.312 28.2942L150.919 28.3123L145.607 33.6066Z" fill="#54A0FF"/>
<path d="M119.5 65H112V57.5H119.5V65Z" fill="#54A0FF"/>
<path d="M109 44.6066L119.607 55.2132V34L109 44.6066Z" fill="#54A0FF"/>
<path d="M98.2132 44.6066L87.6066 34V55.2132L98.2132 44.6066Z" fill="#54A0FF"/>
<path d="M111 41H96L103.5 48.5L111 41Z" fill="#54A0FF"/>
<path d="M88 65.5H95.5V58L88 65.5Z" fill="#54A0FF"/>
<path d="M112.102 49.1015V56.6015H119.602L112.102 49.1015Z" fill="#54A0FF"/>
<path d="M95.5 56.5L88 64V56.5L95.5 49V56.5Z" fill="#54A0FF"/>
<path d="M55.5 68H48V60.5H55.5V68Z" fill="#54A0FF"/>
<path d="M59.6066 31L49 41.6066H70.2132L59.6066 31Z" fill="#54A0FF"/>
<path d="M48 43V58L63 43H48Z" fill="#54A0FF"/>
<path d="M72 60V44L64 52L72 60Z" fill="#54A0FF"/>
<path d="M71.5 43H64V50.5L71.5 43Z" fill="#54A0FF"/>
<path d="M66.3033 66.6066L71.6066 61.3033L66.3033 56V66.6066Z" fill="#54A0FF"/>
<path d="M55.5 52L48 59.5H55.5L63 52H55.5Z" fill="#54A0FF"/>
<path d="M167.5 160H160V152.5H167.5V160Z" fill="#54A0FF"/>
<path d="M157 139.607L167.607 150.213V129L157 139.607Z" fill="#54A0FF"/>
<path d="M146.213 139.607L135.607 129V150.213L146.213 139.607Z" fill="#54A0FF"/>
<path d="M159 136H144L151.5 143.5L159 136Z" fill="#54A0FF"/>
<path d="M136 160.5H143.5V153L136 160.5Z" fill="#54A0FF"/>
<path d="M160.102 144.101V151.601H167.602L160.102 144.101Z" fill="#54A0FF"/>
<path d="M143.5 151.5L136 159V151.5L143.5 144V151.5Z" fill="#54A0FF"/>
<path d="M81.4999 153H73.9999V145.5H81.4999V153Z" fill="#54A0FF"/>
<path d="M62 133V148L77 133H62Z" fill="#54A0FF"/>
<path d="M61.9999 149.607L72.6065 160.213V139L61.9999 149.607Z" fill="#54A0FF"/>
<path d="M72.9706 162.314L61.6569 151V162.314H72.9706Z" fill="#54A0FF"/>
<path d="M82.3033 148.607L87.6066 143.303L82.3033 138V148.607Z" fill="#54A0FF"/>
<path d="M86.5 140.5V133H79L86.5 140.5Z" fill="#54A0FF"/>
<path d="M85.5 161.5L78 154H85.5L93 161.5H85.5Z" fill="#54A0FF"/>
<path d="M106.5 163H99V155.5H106.5V163Z" fill="#54A0FF"/>
<path d="M110.607 126L100 136.607H121.213L110.607 126Z" fill="#54A0FF"/>
<path d="M99 138V153L114 138H99Z" fill="#54A0FF"/>
<path d="M123 155V139L115 147L123 155Z" fill="#54A0FF"/>
<path d="M122.5 138H115V145.5L122.5 138Z" fill="#54A0FF"/>
<path d="M117.303 161.607L122.607 156.303L117.303 151V161.607Z" fill="#54A0FF"/>
<path d="M106.5 147L99 154.5H106.5L114 147H106.5Z" fill="#54A0FF"/>
<path d="M77.6066 85.5H70.1066V78H77.6066V85.5Z" fill="#54A0FF"/>
<path d="M62.6066 110L52 120.607H73.2132L62.6066 110Z" fill="#54A0FF"/>
<path d="M69.1066 78H54.1066L69.1066 93V78Z" fill="#54A0FF"/>
<path d="M61.1066 95V110L68.6066 102.5L61.1066 95Z" fill="#54A0FF"/>
<path d="M68.4099 104L63.1066 109.303L68.4099 114.607V104Z" fill="#54A0FF"/>
<path d="M53.1066 78.5V86H60.6066L53.1066 78.5Z" fill="#54A0FF"/>
<path d="M61.3162 93.9226L68.7603 101.478L68.816 93.9782L61.3718 86.4228L61.3162 93.9226Z" fill="#54A0FF"/>
<path d="M91.6066 115H84.1066V107.5H91.6066V115Z" fill="#54A0FF"/>
<path d="M95.7132 78L85.1066 88.6066H106.32L95.7132 78Z" fill="#54A0FF"/>
<path d="M84.1066 90V105L99.1066 90H84.1066Z" fill="#54A0FF"/>
<path d="M108.107 107V91L100.107 99L108.107 107Z" fill="#54A0FF"/>
<path d="M107.607 90H100.107V97.5L107.607 90Z" fill="#54A0FF"/>
<path d="M102.41 113.607L107.713 108.303L102.41 103V113.607Z" fill="#54A0FF"/>
<path d="M91.6066 99L84.1066 106.5H91.6066L99.1066 99H91.6066Z" fill="#54A0FF"/>
<path d="M142.41 92.6066L137.107 87.3033L142.41 82L147.713 87.3033L142.41 92.6066Z" fill="#54A0FF"/>
<path d="M120.107 95H135.107L120.107 80V95Z" fill="#54A0FF"/>
<path d="M135.607 96H120.607L135.607 111V96Z" fill="#54A0FF"/>
<path d="M125.42 104L114.107 115.314H125.42V104Z" fill="#54A0FF"/>
<path d="M120.103 107.607L125.407 102.303L120.103 97V107.607Z" fill="#54A0FF"/>
<path d="M136.803 99.6066L142.107 94.3033L136.803 89V99.6066Z" fill="#54A0FF"/>
<path d="M142.213 106.607V96L136.91 101.303V111.91L142.213 106.607Z" fill="#54A0FF"/>
<path d="M55.5 156.5H48V149H55.5V156.5Z" fill="#54A0FF"/>
<path d="M27 140.607L37.6066 151.213V130L27 140.607Z" fill="#54A0FF"/>
<path d="M27 157H42L27 142V157Z" fill="#54A0FF"/>
<path d="M52 158H36L44 166L52 158Z" fill="#54A0FF"/>
<path d="M38.5 130V137.5H46L38.5 130Z" fill="#54A0FF"/>
<path d="M46.5 136.5V129H39L46.5 136.5Z" fill="#54A0FF"/>
<path d="M34.5 165.5L27 158H34.5L42 165.5H34.5Z" fill="#54A0FF"/>
<path d="M157.107 34L151.803 39.3033L146.5 34L151.803 28.6967L157.107 34Z" stroke="white" stroke-width="22" mask="url(#path-1-outside-1)"/>
<path d="M154.213 58.6066L143.607 48V69.2132L154.213 58.6066Z" stroke="white" stroke-width="22" mask="url(#path-1-outside-1)"/>
<path d="M132 46.6066L142.607 57.2132V36L132 46.6066Z" stroke="white" stroke-width="22" mask="url(#path-1-outside-1)"/>
<path d="M142.607 58.5901L132 69.1967H142.607V58.5901Z" stroke="white" stroke-width="22" mask="url(#path-1-outside-1)"/>
<path d="M126 63.3033L131.303 68.6066L136.607 63.3033H126Z" stroke="white" stroke-width="22" mask="url(#path-1-outside-1)"/>
<path d="M142.5 34.4702L135 34.5L135.03 41.9999L142.5 34.4702Z" stroke="white" stroke-width="22" mask="url(#path-1-outside-1)"/>
<path d="M145.607 33.6066L135 33.5885L140.312 28.2942L150.919 28.3123L145.607 33.6066Z" stroke="white" stroke-width="22" mask="url(#path-1-outside-1)"/>
<path d="M119.5 65H112V57.5H119.5V65Z" stroke="white" stroke-width="22" mask="url(#path-1-outside-1)"/>
<path d="M109 44.6066L119.607 55.2132V34L109 44.6066Z" stroke="white" stroke-width="22" mask="url(#path-1-outside-1)"/>
<path d="M98.2132 44.6066L87.6066 34V55.2132L98.2132 44.6066Z" stroke="white" stroke-width="22" mask="url(#path-1-outside-1)"/>
<path d="M111 41H96L103.5 48.5L111 41Z" stroke="white" stroke-width="22" mask="url(#path-1-outside-1)"/>
<path d="M88 65.5H95.5V58L88 65.5Z" stroke="white" stroke-width="22" mask="url(#path-1-outside-1)"/>
<path d="M112.102 49.1015V56.6015H119.602L112.102 49.1015Z" stroke="white" stroke-width="22" mask="url(#path-1-outside-1)"/>
<path d="M95.5 56.5L88 64V56.5L95.5 49V56.5Z" stroke="white" stroke-width="22" mask="url(#path-1-outside-1)"/>
<path d="M55.5 68H48V60.5H55.5V68Z" stroke="white" stroke-width="22" mask="url(#path-1-outside-1)"/>
<path d="M59.6066 31L49 41.6066H70.2132L59.6066 31Z" stroke="white" stroke-width="22" mask="url(#path-1-outside-1)"/>
<path d="M48 43V58L63 43H48Z" stroke="white" stroke-width="22" mask="url(#path-1-outside-1)"/>
<path d="M72 60V44L64 52L72 60Z" stroke="white" stroke-width="22" mask="url(#path-1-outside-1)"/>
<path d="M71.5 43H64V50.5L71.5 43Z" stroke="white" stroke-width="22" mask="url(#path-1-outside-1)"/>
<path d="M66.3033 66.6066L71.6066 61.3033L66.3033 56V66.6066Z" stroke="white" stroke-width="22" mask="url(#path-1-outside-1)"/>
<path d="M55.5 52L48 59.5H55.5L63 52H55.5Z" stroke="white" stroke-width="22" mask="url(#path-1-outside-1)"/>
<path d="M167.5 160H160V152.5H167.5V160Z" stroke="white" stroke-width="22" mask="url(#path-1-outside-1)"/>
<path d="M157 139.607L167.607 150.213V129L157 139.607Z" stroke="white" stroke-width="22" mask="url(#path-1-outside-1)"/>
<path d="M146.213 139.607L135.607 129V150.213L146.213 139.607Z" stroke="white" stroke-width="22" mask="url(#path-1-outside-1)"/>
<path d="M159 136H144L151.5 143.5L159 136Z" stroke="white" stroke-width="22" mask="url(#path-1-outside-1)"/>
<path d="M136 160.5H143.5V153L136 160.5Z" stroke="white" stroke-width="22" mask="url(#path-1-outside-1)"/>
<path d="M160.102 144.101V151.601H167.602L160.102 144.101Z" stroke="white" stroke-width="22" mask="url(#path-1-outside-1)"/>
<path d="M143.5 151.5L136 159V151.5L143.5 144V151.5Z" stroke="white" stroke-width="22" mask="url(#path-1-outside-1)"/>
<path d="M81.4999 153H73.9999V145.5H81.4999V153Z" stroke="white" stroke-width="22" mask="url(#path-1-outside-1)"/>
<path d="M62 133V148L77 133H62Z" stroke="white" stroke-width="22" mask="url(#path-1-outside-1)"/>
<path d="M61.9999 149.607L72.6065 160.213V139L61.9999 149.607Z" stroke="white" stroke-width="22" mask="url(#path-1-outside-1)"/>
<path d="M72.9706 162.314L61.6569 151V162.314H72.9706Z" stroke="white" stroke-width="22" mask="url(#path-1-outside-1)"/>
<path d="M82.3033 148.607L87.6066 143.303L82.3033 138V148.607Z" stroke="white" stroke-width="22" mask="url(#path-1-outside-1)"/>
<path d="M86.5 140.5V133H79L86.5 140.5Z" stroke="white" stroke-width="22" mask="url(#path-1-outside-1)"/>
<path d="M85.5 161.5L78 154H85.5L93 161.5H85.5Z" stroke="white" stroke-width="22" mask="url(#path-1-outside-1)"/>
<path d="M106.5 163H99V155.5H106.5V163Z" stroke="white" stroke-width="22" mask="url(#path-1-outside-1)"/>
<path d="M110.607 126L100 136.607H121.213L110.607 126Z" stroke="white" stroke-width="22" mask="url(#path-1-outside-1)"/>
<path d="M99 138V153L114 138H99Z" stroke="white" stroke-width="22" mask="url(#path-1-outside-1)"/>
<path d="M123 155V139L115 147L123 155Z" stroke="white" stroke-width="22" mask="url(#path-1-outside-1)"/>
<path d="M122.5 138H115V145.5L122.5 138Z" stroke="white" stroke-width="22" mask="url(#path-1-outside-1)"/>
<path d="M117.303 161.607L122.607 156.303L117.303 151V161.607Z" stroke="white" stroke-width="22" mask="url(#path-1-outside-1)"/>
<path d="M106.5 147L99 154.5H106.5L114 147H106.5Z" stroke="white" stroke-width="22" mask="url(#path-1-outside-1)"/>
<path d="M77.6066 85.5H70.1066V78H77.6066V85.5Z" stroke="white" stroke-width="22" mask="url(#path-1-outside-1)"/>
<path d="M62.6066 110L52 120.607H73.2132L62.6066 110Z" stroke="white" stroke-width="22" mask="url(#path-1-outside-1)"/>
<path d="M69.1066 78H54.1066L69.1066 93V78Z" stroke="white" stroke-width="22" mask="url(#path-1-outside-1)"/>
<path d="M61.1066 95V110L68.6066 102.5L61.1066 95Z" stroke="white" stroke-width="22" mask="url(#path-1-outside-1)"/>
<path d="M68.4099 104L63.1066 109.303L68.4099 114.607V104Z" stroke="white" stroke-width="22" mask="url(#path-1-outside-1)"/>
<path d="M53.1066 78.5V86H60.6066L53.1066 78.5Z" stroke="white" stroke-width="22" mask="url(#path-1-outside-1)"/>
<path d="M61.3162 93.9226L68.7603 101.478L68.816 93.9782L61.3718 86.4228L61.3162 93.9226Z" stroke="white" stroke-width="22" mask="url(#path-1-outside-1)"/>
<path d="M91.6066 115H84.1066V107.5H91.6066V115Z" stroke="white" stroke-width="22" mask="url(#path-1-outside-1)"/>
<path d="M95.7132 78L85.1066 88.6066H106.32L95.7132 78Z" stroke="white" stroke-width="22" mask="url(#path-1-outside-1)"/>
<path d="M84.1066 90V105L99.1066 90H84.1066Z" stroke="white" stroke-width="22" mask="url(#path-1-outside-1)"/>
<path d="M108.107 107V91L100.107 99L108.107 107Z" stroke="white" stroke-width="22" mask="url(#path-1-outside-1)"/>
<path d="M107.607 90H100.107V97.5L107.607 90Z" stroke="white" stroke-width="22" mask="url(#path-1-outside-1)"/>
<path d="M102.41 113.607L107.713 108.303L102.41 103V113.607Z" stroke="white" stroke-width="22" mask="url(#path-1-outside-1)"/>
<path d="M91.6066 99L84.1066 106.5H91.6066L99.1066 99H91.6066Z" stroke="white" stroke-width="22" mask="url(#path-1-outside-1)"/>
<path d="M142.41 92.6066L137.107 87.3033L142.41 82L147.713 87.3033L142.41 92.6066Z" stroke="white" stroke-width="22" mask="url(#path-1-outside-1)"/>
<path d="M120.107 95H135.107L120.107 80V95Z" stroke="white" stroke-width="22" mask="url(#path-1-outside-1)"/>
<path d="M135.607 96H120.607L135.607 111V96Z" stroke="white" stroke-width="22" mask="url(#path-1-outside-1)"/>
<path d="M125.42 104L114.107 115.314H125.42V104Z" stroke="white" stroke-width="22" mask="url(#path-1-outside-1)"/>
<path d="M120.103 107.607L125.407 102.303L120.103 97V107.607Z" stroke="white" stroke-width="22" mask="url(#path-1-outside-1)"/>
<path d="M136.803 99.6066L142.107 94.3033L136.803 89V99.6066Z" stroke="white" stroke-width="22" mask="url(#path-1-outside-1)"/>
<path d="M142.213 106.607V96L136.91 101.303V111.91L142.213 106.607Z" stroke="white" stroke-width="22" mask="url(#path-1-outside-1)"/>
<path d="M55.5 156.5H48V149H55.5V156.5Z" stroke="white" stroke-width="22" mask="url(#path-1-outside-1)"/>
<path d="M27 140.607L37.6066 151.213V130L27 140.607Z" stroke="white" stroke-width="22" mask="url(#path-1-outside-1)"/>
<path d="M27 157H42L27 142V157Z" stroke="white" stroke-width="22" mask="url(#path-1-outside-1)"/>
<path d="M52 158H36L44 166L52 158Z" stroke="white" stroke-width="22" mask="url(#path-1-outside-1)"/>
<path d="M38.5 130V137.5H46L38.5 130Z" stroke="white" stroke-width="22" mask="url(#path-1-outside-1)"/>
<path d="M46.5 136.5V129H39L46.5 136.5Z" stroke="white" stroke-width="22" mask="url(#path-1-outside-1)"/>
<path d="M34.5 165.5L27 158H34.5L42 165.5H34.5Z" stroke="white" stroke-width="22" mask="url(#path-1-outside-1)"/>
<path d="M157.107 34L151.803 39.3033L146.5 34L151.803 28.6967L157.107 34Z" fill="#FECA57"/>
<path d="M157.107 34L151.803 39.3033L146.5 34L151.803 28.6967L157.107 34Z" stroke="white"/>
<path d="M154.213 58.6066L143.607 48V69.2132L154.213 58.6066Z" fill="#48DBFB"/>
<path d="M154.213 58.6066L143.607 48V69.2132L154.213 58.6066Z" stroke="white"/>
<path d="M132 46.6066L142.607 57.2132V36L132 46.6066Z" fill="#1DD1A1"/>
<path d="M132 46.6066L142.607 57.2132V36L132 46.6066Z" stroke="white"/>
<path d="M132 69.1967H142.607V58.5901L132 69.1967Z" fill="#FF6B6B"/>
<path d="M132 69.1967H142.607V58.5901L132 69.1967Z" stroke="white"/>
<path d="M126 63.3033L131.303 68.6066L136.607 63.3033H126Z" fill="#8557E0"/>
<path d="M126 63.3033L131.303 68.6066L136.607 63.3033H126Z" stroke="white"/>
<path d="M142.5 34.4702L135 34.5L135.03 41.9999L142.5 34.4702Z" fill="#FF9FF3"/>
<path d="M142.5 34.4702L135 34.5L135.03 41.9999L142.5 34.4702Z" stroke="white"/>
<path d="M145.607 33.6066L135 33.5885L140.312 28.2942L150.919 28.3124L145.607 33.6066Z" fill="#54A0FF"/>
<path d="M145.607 33.6066L135 33.5885L140.312 28.2942L150.919 28.3124L145.607 33.6066Z" stroke="white"/>
<path d="M119.5 65H112V57.5H119.5V65Z" fill="#FECA57"/>
<path d="M119.5 65H112V57.5H119.5V65Z" stroke="white"/>
<path d="M109 44.6066L119.607 55.2132V34L109 44.6066Z" fill="#48DBFB"/>
<path d="M109 44.6066L119.607 55.2132V34L109 44.6066Z" stroke="white"/>
<path d="M98.2132 44.6066L87.6066 34V55.2132L98.2132 44.6066Z" fill="#1DD1A1"/>
<path d="M98.2132 44.6066L87.6066 34V55.2132L98.2132 44.6066Z" stroke="white"/>
<path d="M96 41L103.5 48.5L111 41H96Z" fill="#FF6B6B"/>
<path d="M96 41L103.5 48.5L111 41H96Z" stroke="white"/>
<path d="M88 65.5H95.5V58L88 65.5Z" fill="#8557E0"/>
<path d="M88 65.5H95.5V58L88 65.5Z" stroke="white"/>
<path d="M112.101 49.1015V56.6015H119.601L112.101 49.1015Z" fill="#FF9FF3"/>
<path d="M112.101 49.1015V56.6015H119.601L112.101 49.1015Z" stroke="white"/>
<path d="M95.5 56.5L88 64V56.5L95.5 49V56.5Z" fill="#54A0FF"/>
<path d="M95.5 56.5L88 64V56.5L95.5 49V56.5Z" stroke="white"/>
<path d="M55.5 68H48V60.5H55.5V68Z" fill="#FECA57"/>
<path d="M55.5 68H48V60.5H55.5V68Z" stroke="white"/>
<path d="M59.6066 31L49 41.6066H70.2132L59.6066 31Z" fill="#48DBFB"/>
<path d="M59.6066 31L49 41.6066H70.2132L59.6066 31Z" stroke="white"/>
<path d="M48 43V58L63 43H48Z" fill="#1DD1A1"/>
<path d="M48 43V58L63 43H48Z" stroke="white"/>
<path d="M72 44L64 52L72 60V44Z" fill="#FF6B6B"/>
<path d="M72 44L64 52L72 60V44Z" stroke="white"/>
<path d="M71.5 43H64V50.5L71.5 43Z" fill="#8557E0"/>
<path d="M71.5 43H64V50.5L71.5 43Z" stroke="white"/>
<path d="M66.3033 66.6066L71.6066 61.3033L66.3033 56V66.6066Z" fill="#FF9FF3"/>
<path d="M66.3033 66.6066L71.6066 61.3033L66.3033 56V66.6066Z" stroke="white"/>
<path d="M55.5 52L48 59.5H55.5L63 52H55.5Z" fill="#54A0FF"/>
<path d="M55.5 52L48 59.5H55.5L63 52H55.5Z" stroke="white"/>
<path d="M167.5 160H160V152.5H167.5V160Z" fill="#FECA57"/>
<path d="M167.5 160H160V152.5H167.5V160Z" stroke="white"/>
<path d="M157 139.607L167.607 150.213V129L157 139.607Z" fill="#48DBFB"/>
<path d="M157 139.607L167.607 150.213V129L157 139.607Z" stroke="white"/>
<path d="M146.213 139.607L135.607 129V150.213L146.213 139.607Z" fill="#1DD1A1"/>
<path d="M146.213 139.607L135.607 129V150.213L146.213 139.607Z" stroke="white"/>
<path d="M144 136L151.5 143.5L159 136H144Z" fill="#FF6B6B"/>
<path d="M144 136L151.5 143.5L159 136H144Z" stroke="white"/>
<path d="M136 160.5H143.5V153L136 160.5Z" fill="#8557E0"/>
<path d="M136 160.5H143.5V153L136 160.5Z" stroke="white"/>
<path d="M160.101 144.101V151.601H167.601L160.101 144.101Z" fill="#FF9FF3"/>
<path d="M160.101 144.101V151.601H167.601L160.101 144.101Z" stroke="white"/>
<path d="M143.5 151.5L136 159V151.5L143.5 144V151.5Z" fill="#54A0FF"/>
<path d="M143.5 151.5L136 159V151.5L143.5 144V151.5Z" stroke="white"/>
<path d="M81.4999 153H73.9999V145.5H81.4999V153Z" fill="#FECA57"/>
<path d="M81.4999 153H73.9999V145.5H81.4999V153Z" stroke="white"/>
<path d="M62 133V148L77 133H62Z" fill="#48DBFB"/>
<path d="M62 133V148L77 133H62Z" stroke="white"/>
<path d="M61.9999 149.607L72.6065 160.213V139L61.9999 149.607Z" fill="#1DD1A1"/>
<path d="M61.9999 149.607L72.6065 160.213V139L61.9999 149.607Z" stroke="white"/>
<path d="M61.6569 151V162.314H72.9706L61.6569 151Z" fill="#FF6B6B"/>
<path d="M61.6569 151V162.314H72.9706L61.6569 151Z" stroke="white"/>
<path d="M82.3033 148.607L87.6066 143.303L82.3033 138V148.607Z" fill="#8557E0"/>
<path d="M82.3033 148.607L87.6066 143.303L82.3033 138V148.607Z" stroke="white"/>
<path d="M86.5 140.5V133H79L86.5 140.5Z" fill="#FF9FF3"/>
<path d="M86.5 140.5V133H79L86.5 140.5Z" stroke="white"/>
<path d="M85.5 161.5L78 154H85.5L93 161.5H85.5Z" fill="#54A0FF"/>
<path d="M85.5 161.5L78 154H85.5L93 161.5H85.5Z" stroke="white"/>
<path d="M106.5 163H99V155.5H106.5V163Z" fill="#FECA57"/>
<path d="M106.5 163H99V155.5H106.5V163Z" stroke="white"/>
<path d="M110.607 126L100 136.607H121.213L110.607 126Z" fill="#48DBFB"/>
<path d="M110.607 126L100 136.607H121.213L110.607 126Z" stroke="white"/>
<path d="M99 138V153L114 138H99Z" fill="#1DD1A1"/>
<path d="M99 138V153L114 138H99Z" stroke="white"/>
<path d="M123 139L115 147L123 155V139Z" fill="#FF6B6B"/>
<path d="M123 139L115 147L123 155V139Z" stroke="white"/>
<path d="M122.5 138H115V145.5L122.5 138Z" fill="#8557E0"/>
<path d="M122.5 138H115V145.5L122.5 138Z" stroke="white"/>
<path d="M117.303 161.607L122.607 156.303L117.303 151V161.607Z" fill="#FF9FF3"/>
<path d="M117.303 161.607L122.607 156.303L117.303 151V161.607Z" stroke="white"/>
<path d="M106.5 147L99 154.5H106.5L114 147H106.5Z" fill="#54A0FF"/>
<path d="M106.5 147L99 154.5H106.5L114 147H106.5Z" stroke="white"/>
<path d="M77.6066 85.5H70.1066V78H77.6066V85.5Z" fill="#FECA57"/>
<path d="M77.6066 85.5H70.1066V78H77.6066V85.5Z" stroke="white"/>
<path d="M62.6066 110L52 120.607H73.2132L62.6066 110Z" fill="#48DBFB"/>
<path d="M62.6066 110L52 120.607H73.2132L62.6066 110Z" stroke="white"/>
<path d="M69.1066 78H54.1066L69.1066 93V78Z" fill="#1DD1A1"/>
<path d="M69.1066 78H54.1066L69.1066 93V78Z" stroke="white"/>
<path d="M61.1066 110L68.6066 102.5L61.1066 95L61.1066 110Z" fill="#FF6B6B"/>
<path d="M61.1066 110L68.6066 102.5L61.1066 95L61.1066 110Z" stroke="white"/>
<path d="M68.4099 104L63.1066 109.303L68.4099 114.607V104Z" fill="#8557E0"/>
<path d="M68.4099 104L63.1066 109.303L68.4099 114.607V104Z" stroke="white"/>
<path d="M53.1066 78.5V86H60.6066L53.1066 78.5Z" fill="#FF9FF3"/>
<path d="M53.1066 78.5V86H60.6066L53.1066 78.5Z" stroke="white"/>
<path d="M61.3162 93.9226L68.7603 101.478L68.816 93.9782L61.3718 86.4228L61.3162 93.9226Z" fill="#54A0FF"/>
<path d="M61.3162 93.9226L68.7603 101.478L68.816 93.9782L61.3718 86.4228L61.3162 93.9226Z" stroke="white"/>
<path d="M91.6066 115H84.1066V107.5H91.6066V115Z" fill="#FECA57"/>
<path d="M91.6066 115H84.1066V107.5H91.6066V115Z" stroke="white"/>
<path d="M95.7132 78L85.1066 88.6066H106.32L95.7132 78Z" fill="#48DBFB"/>
<path d="M95.7132 78L85.1066 88.6066H106.32L95.7132 78Z" stroke="white"/>
<path d="M84.1066 90V105L99.1066 90H84.1066Z" fill="#1DD1A1"/>
<path d="M84.1066 90V105L99.1066 90H84.1066Z" stroke="white"/>
<path d="M108.107 91L100.107 99L108.107 107V91Z" fill="#FF6B6B"/>
<path d="M108.107 91L100.107 99L108.107 107V91Z" stroke="white"/>
<path d="M107.607 90H100.107V97.5L107.607 90Z" fill="#8557E0"/>
<path d="M107.607 90H100.107V97.5L107.607 90Z" stroke="white"/>
<path d="M102.41 113.607L107.713 108.303L102.41 103V113.607Z" fill="#FF9FF3"/>
<path d="M102.41 113.607L107.713 108.303L102.41 103V113.607Z" stroke="white"/>
<path d="M91.6066 99L84.1066 106.5H91.6066L99.1066 99H91.6066Z" fill="#54A0FF"/>
<path d="M91.6066 99L84.1066 106.5H91.6066L99.1066 99H91.6066Z" stroke="white"/>
<path d="M142.41 92.6066L137.107 87.3033L142.41 82L147.713 87.3033L142.41 92.6066Z" fill="#FECA57"/>
<path d="M142.41 92.6066L137.107 87.3033L142.41 82L147.713 87.3033L142.41 92.6066Z" stroke="white"/>
<path d="M120.107 95H135.107L120.107 80V95Z" fill="#48DBFB"/>
<path d="M120.107 95H135.107L120.107 80V95Z" stroke="white"/>
<path d="M135.607 96H120.607L135.607 111V96Z" fill="#1DD1A1"/>
<path d="M135.607 96H120.607L135.607 111V96Z" stroke="white"/>
<path d="M114.107 115.314H125.42V104L114.107 115.314Z" fill="#FF6B6B"/>
<path d="M114.107 115.314H125.42V104L114.107 115.314Z" stroke="white"/>
<path d="M120.103 107.607L125.407 102.303L120.103 97V107.607Z" fill="#8557E0"/>
<path d="M120.103 107.607L125.407 102.303L120.103 97V107.607Z" stroke="white"/>
<path d="M136.803 99.6066L142.107 94.3033L136.803 89V99.6066Z" fill="#FF9FF3"/>
<path d="M136.803 99.6066L142.107 94.3033L136.803 89V99.6066Z" stroke="white"/>
<path d="M142.213 106.607V96L136.91 101.303V111.91L142.213 106.607Z" fill="#54A0FF"/>
<path d="M142.213 106.607V96L136.91 101.303V111.91L142.213 106.607Z" stroke="white"/>
<path d="M55.5 156.5H48V149H55.5V156.5Z" fill="#FECA57"/>
<path d="M55.5 156.5H48V149H55.5V156.5Z" stroke="white"/>
<path d="M27 140.607L37.6066 151.213V130L27 140.607Z" fill="#48DBFB"/>
<path d="M27 140.607L37.6066 151.213V130L27 140.607Z" stroke="white"/>
<path d="M27 157H42L27 142V157Z" fill="#1DD1A1"/>
<path d="M27 157H42L27 142V157Z" stroke="white"/>
<path d="M36 158L44 166L52 158H36Z" fill="#FF6B6B"/>
<path d="M36 158L44 166L52 158H36Z" stroke="white"/>
<path d="M38.5 130V137.5H46L38.5 130Z" fill="#8557E0"/>
<path d="M38.5 130V137.5H46L38.5 130Z" stroke="white"/>
<path d="M46.5 136.5V129H39L46.5 136.5Z" fill="#FF9FF3"/>
<path d="M46.5 136.5V129H39L46.5 136.5Z" stroke="white"/>
<path d="M34.5 165.5L27 158H34.5L42 165.5H34.5Z" fill="#54A0FF"/>
<path d="M34.5 165.5L27 158H34.5L42 165.5H34.5Z" stroke="white"/>
</svg>
